<?xml version="1.0" encoding="utf-8"?>
<!-- Generator: Adobe Illustrator 25.0.0, SVG Export Plug-In . SVG Version: 6.00 Build 0)  -->
<svg version="1.1" id="Calque_1" xmlns="http://www.w3.org/2000/svg" xmlns:xlink="http://www.w3.org/1999/xlink" x="0px" y="0px"
	 viewBox="0 0 904.5 1188.6" style="enable-background:new 0 0 904.5 1188.6;" xml:space="preserve">
  <defs>
    <style type="text/css">
       g {
        
		animation: clr 15s linear infinite alternate;
      }
	  
	         @keyframes clr{
            0%{
              
              fill:#0f0f0f;
            }

            10%{
          
              fill:#0f0f0f;
            }
            
            35%{
            
              fill:#f1f1f1;
            }
            
            100%{
             
              fill:#f1f1f1;
            }
          }
 </style>
  </defs>
<g transform="translate(0.000000,1280.000000) scale(0.100000,-0.100000)">
	<path d="M5204,12562.3c-95.8,75.6-230.3,150.6-337.4,186.3c-143.4,48.2-363.6,64.9-515.9,39.9c-456.4-74.4-809.9-423.1-894.4-882.5
		c-7.7-43.4-12.5-1289.5-13.1-3684.7l-0.6-3619.8l-846.8,842L1749,6286.7l-70.8,44.6c-336.2,211.3-738.5,235.1-1080.7,64.3
		c-113.1-55.9-173.8-101.2-279.1-206.5c-141-141-208.3-251.1-267.2-435c-37.5-118.4-51.8-212.4-51.2-338
		c1.8-210.1,63.7-411.2,183.9-590.9c44.6-67.2,92.2-116,1791.2-1823.3c1281.2-1287.1,1769.7-1773.3,1834-1828.1
		c242.8-205.9,558.2-301.1,855.7-259.5c160.7,22.6,327.3,88.1,486.8,190.4c50.6,32.7,200.5,181.5,1856,1840.6
		c1950.1,1953.6,1842.3,1842.3,1916.1,1984c180.9,346.3,158.3,760.5-60.1,1101.5c-54.2,83.9-211.3,241-296.3,296.3
		c-187.4,120.8-386.2,180.3-605.2,180.3c-212.4,0.6-405.2-56.5-595.1-176.1l-70.8-44.6l-846.8-843.2l-846.8-842l-0.6,3625.8
		c-1.2,3894.2,2.4,3678.7-58.9,3853.1C5479.6,12260.6,5348.7,12446.3,5204,12562.3z"/>
</g>
</svg>
