<?xml version="1.0" encoding="utf-8"?>
<!-- Generator: Adobe Illustrator 25.0.0, SVG Export Plug-In . SVG Version: 6.00 Build 0)  -->
<svg version="1.1" id="Calque_1" xmlns="http://www.w3.org/2000/svg" xmlns:xlink="http://www.w3.org/1999/xlink" x="0px" y="0px"
	 viewBox="0 0 75 75" style="enable-background:new 0 0 75 75;" xml:space="preserve">
<style type="text/css">
	.st0{display:none;}
	.st1{display:inline;}
	.st2{display:inline;fill:#FFFFFF;}
	.st3{fill:#0F0F0F;}
</style>
<g id="Calque_2_1_" class="st0">
</g>
<g id="Calque_1_1_" class="st0">
	<rect class="st1" width="75" height="75"/>
</g>
<g class="st0">
	<circle class="st2" cx="37.5" cy="8.3" r="7.3"/>
</g>
<g class="st0">
	<circle class="st2" cx="37.5" cy="37.5" r="7.3"/>
</g>
<g class="st0">
	<circle class="st2" cx="37.5" cy="66.7" r="7.3"/>
</g>
<g>
	<g>
		<path class="st3" d="M63.1,56L19,11.9c-1.1-1.1-3-1.1-4.1,0l-3,3c-1.1,1.1-1.1,3,0,4.1L56,63.1c1.1,1.1,3,1.1,4.1,0l3-3
			C64.2,58.9,64.2,57.1,63.1,56z"/>
		<path class="st3" d="M56,11.8L11.9,55.9c-1.1,1.1-1.1,3,0,4.1l3,3c1.1,1.1,3,1.1,4.1,0l44-44c1.1-1.1,1.1-3,0-4.1l-3-3
			C58.9,10.7,57.1,10.7,56,11.8z"/>
	</g>
</g>
<g id="Calque_3" class="st0">
</g>
</svg>
