<?xml version="1.0" encoding="utf-8"?>
<!-- Generator: Adobe Illustrator 25.0.0, SVG Export Plug-In . SVG Version: 6.00 Build 0)  -->
<svg version="1.1" xmlns="http://www.w3.org/2000/svg" xmlns:xlink="http://www.w3.org/1999/xlink" x="0px" y="0px"
	 viewBox="0 0 75 75" style="enable-background:new 0 0 75 75;" xml:space="preserve">
<style type="text/css">
	.st0{display:none;}
	.st1{display:inline;}
	.st2{display:inline;fill:#FFFFFF;}
	.st3{fill:#FFFFFF;}
</style>
<g id="Calque_1" class="st0">
	<rect class="st1" width="75" height="75"/>
</g>
<g id="Calque_2">
	<g class="st0">
		<circle class="st2" cx="37.5" cy="8.3" r="7.3"/>
	</g>
	<g class="st0">
		<circle class="st2" cx="37.5" cy="37.5" r="7.3"/>
	</g>
	<g class="st0">
		<circle class="st2" cx="37.5" cy="66.7" r="7.3"/>
	</g>
	<g>
		<path class="st3" d="M68.7,56.5H6.3c-1.6,0-2.9,1.3-2.9,2.9v4.3c0,1.6,1.3,2.9,2.9,2.9h62.3c1.6,0,2.9-1.3,2.9-2.9v-4.3
			C71.5,57.8,70.3,56.5,68.7,56.5z"/>
		<path class="st3" d="M68.7,32.5H6.3c-1.6,0-2.9,1.3-2.9,2.9v4.3c0,1.6,1.3,2.9,2.9,2.9h62.3c1.6,0,2.9-1.3,2.9-2.9v-4.3
			C71.5,33.8,70.3,32.5,68.7,32.5z"/>
		<path class="st3" d="M68.7,8.5H6.3c-1.6,0-2.9,1.3-2.9,2.9v4.3c0,1.6,1.3,2.9,2.9,2.9h62.3c1.6,0,2.9-1.3,2.9-2.9v-4.3
			C71.5,9.8,70.3,8.5,68.7,8.5z"/>
	</g>
</g>
<g id="Calque_3">
</g>
</svg>
