<?xml version="1.0" encoding="utf-8"?>
<!-- Generator: Adobe Illustrator 25.0.0, SVG Export Plug-In . SVG Version: 6.00 Build 0)  -->
<svg version="1.1" xmlns="http://www.w3.org/2000/svg" xmlns:xlink="http://www.w3.org/1999/xlink" x="0px" y="0px"
	 viewBox="0 0 75 75" style="enable-background:new 0 0 75 75;" xml:space="preserve">
<style type="text/css">
	.st0{display:none;}
	.st1{display:inline;}
	.st2{display:inline;fill:#FFFFFF;}
	.st3{fill:#FFFFFF;}
</style>
<g id="Calque_2">
</g>
<g id="Calque_1">
	<g id="Calque_1_1_" class="st0">
		<rect class="st1" width="75" height="75"/>
	</g>
	<g class="st0">
		<circle class="st2" cx="37.5" cy="8.3" r="7.3"/>
	</g>
	<g class="st0">
		<circle class="st2" cx="37.5" cy="37.5" r="7.3"/>
	</g>
	<g class="st0">
		<circle class="st2" cx="37.5" cy="66.7" r="7.3"/>
	</g>
	<g>
		<path class="st3" d="M63.1,56.1L19,12c-1.1-1.1-3-1.1-4.1,0l-3,3c-1.1,1.1-1.1,3,0,4.1l44.1,44.1c1.1,1.1,3,1.1,4.1,0l3-3
			C64.2,59,64.2,57.2,63.1,56.1z"/>
		<path class="st3" d="M56,11.9L11.9,56c-1.1,1.1-1.1,3,0,4.1l3,3c1.1,1.1,3,1.1,4.1,0L63,19.1c1.1-1.1,1.1-3,0-4.1l-3-3
			C58.9,10.8,57.1,10.8,56,11.9z"/>
	</g>
	<g id="Calque_3">
	</g>
</g>
</svg>
