<?xml version="1.0" encoding="utf-8"?>
<!-- Generator: Adobe Illustrator 25.0.0, SVG Export Plug-In . SVG Version: 6.00 Build 0)  -->
<svg version="1.1" id="Calque_1" xmlns="http://www.w3.org/2000/svg" xmlns:xlink="http://www.w3.org/1999/xlink" x="0px" y="0px"
	 viewBox="0 0 977.4 1080" style="enable-background:new 0 0 977.4 1080;" xml:space="preserve">
<style type="text/css">
	.st0{fill:#F1F1F1;}
</style>
<g>
	<g>
		<path class="st0" d="M496.6,774.6c-5.4-2.4-9.7-6.2-13.9-10.3c-27.9-28.1-56-56.1-84.1-84c-1.7-1.7-3.9-2.8-6.9-4.8
			c29.9-14.1,57.9-27.3,85.9-40.5c16.3-7.7,32.7-15.1,48.9-23c3.4-1.7,5.2-1.4,7.7,1.3c17.4,17.7,35.1,35.1,52.5,52.7
			c9.9,10,10,21,0.2,30.9c-23.3,23.5-46.8,46.7-70.1,70.3c-3.3,3.3-7.2,5.3-11.1,7.5C502.7,774.6,499.6,774.6,496.6,774.6z"/>
		<path class="st0" d="M546.2,105.4c11.1,4.9,15.3,13.4,14.6,25.4c-0.7,11.7-0.1,23.5-0.2,35.2c-0.1,11.9-8.1,20.3-19.1,20.5
			c-11.3,0.2-19.9-8.4-20.1-20.3c-0.2-13.5,0-27-0.1-40.4c-0.1-10.2,6.1-16,14.2-20.3C539.2,105.4,542.7,105.4,546.2,105.4z"/>
		<path class="st0" d="M728.8,461c-0.8,10.1-6.3,15.6-14.4,19.3c-32.2,15.1-64.5,30.3-96.6,45.4c-83.1,39.1-166.2,78.1-249.2,117.4
			c-3.8,1.8-5.8,1.6-8.8-1.4c-34.7-34.9-69.5-69.8-104.4-104.5c-2.7-2.7-3.2-4.6-1.5-8.2c54.6-115.7,109-231.4,163.5-347.1
			c7.4-15.6,22.1-18.2,34.3-6.1c90,89.9,179.9,179.9,269.9,269.8C726.1,450.2,728.8,455.3,728.8,461z"/>
		<path class="st0" d="M335.6,673.5c-10.6,10.6-21.1,21.2-31.9,31.7c-9,8.7-20.2,8.7-29,0c-27.6-27.5-55.2-55-82.7-82.7
			c-8.8-8.8-8.8-20.1-0.1-28.9c9.7-9.9,19.7-19.7,29.5-29.6c1.7-1.7,2.7-2.8,5-0.4c36.2,36.4,72.4,72.8,108.7,109.2
			C335.4,672.8,335.4,673.1,335.6,673.5z"/>
		<path class="st0" d="M667.2,249.4c-8.1-0.2-14.2-3.8-17.6-11.3c-3.3-7.4-2.8-14.9,2.8-20.7c14.5-15.1,29.2-29.9,44.4-44.3
			c7.4-7,18.9-6.1,26.1,0.8c7.3,7.1,8.5,18.9,1.3,26.5c-14.4,15.1-29.4,29.8-44.3,44.4C676.5,248.2,672,249.6,667.2,249.4z"/>
		<path class="st0" d="M750.8,336.5c7,0,13.9-0.1,20.9,0c11.4,0.2,19.8,8.1,20.2,18.9c0.4,10.5-7.9,19.8-18.9,20.2
			c-14.6,0.5-29.2,0.6-43.7-0.1c-11.2-0.4-18.8-9.7-18.4-20.5c0.4-10.4,8.6-18.2,19.8-18.4C737.3,336.4,744,336.5,750.8,336.5z"/>
	</g>
</g>
</svg>
