<?xml version="1.0" encoding="utf-8"?>
<!-- Generator: Adobe Illustrator 25.0.0, SVG Export Plug-In . SVG Version: 6.00 Build 0)  -->
<svg version="1.1" id="Calque_1" xmlns="http://www.w3.org/2000/svg" xmlns:xlink="http://www.w3.org/1999/xlink" x="0px" y="0px"
	 viewBox="0 0 1322.5 1083" style="enable-background:new 0 0 1322.5 1083;" xml:space="preserve">
<style type="text/css">
	.st0{fill:#F1F1F1;}
</style>
<path class="st0" d="M1143.8,120.9c-2.2-21.2-7.1-41.8-14.7-61.7c-6.2-16-17.3-18.9-29.1-6.4c-12,12.6-24.8,23.6-41.4,29.4
	c-11.6,4.1-23.1,8.6-34.6,12.9c-28.9,10.8-55,25.7-73.5,51.2c-11.1,15.3-16.6,32.5-13.5,51.7c0.1,0.6,0.3,0.8,0.6,0.6
	c0.9-0.8-0.2,1.5-0.6,0c-15-21.1-31.1-41.7-50.2-59.5c-30.6-28.7-64.7-52.2-102.8-70.4c-71.3-34-145.9-47.5-224-35.9
	C453.9,48.7,367.9,100.5,302.4,185C254.7,246.6,226,316.3,222,395.1c-2.3,44.2-0.4,87.9,11.5,131.1
	c19.4,70.5,51.3,133.5,105.4,184.1c30.5,28.6,65,50,104.8,62.8c40.8,13,80.9,11.9,119.9-6.6c41.9-19.8,68.6-53.5,85.6-95.5
	c8.5-21.2,13.8-43.1,11.3-66.7c-1.4-13-2.9-26.2-2.2-39.5c1.6-33.3,28.5-54.8,61-48.3c8,1.6,8.8,2.9,5.2,9.9
	c-11.5,22.4-23,44.9-33.1,67.9c-10.7,24.2-21.4,48.4-24,75.1c-1.3,12.2,0.6,23.8,8.7,33.9c14.1,17.6,37.8,14.5,54.1,4.8
	c15.8-9.4,29.8-21.2,43.1-33.9c39.1-37.5,73.2-79.3,106.7-121.7c3.6-4.6,7.7-8.2,13.2-10.3c25-9.8,46.6-24.3,65.1-43.8
	c28.6-30.2,45.3-65.2,45.9-107.3c0.1-8.2,1.3-16.3,5.9-23.3c18-27.7,35-56,51.4-84.6c2.3-4.1,5.3-7,9.9-8.7
	c45.3-16.3,73-69.4,71.8-108.4c0-0.2,0-0.4,0-0.6l0,0v-17.1c0-0.1,0-0.2,0-0.3c0.3-3.6-1-7.3,0.9-10.8v-5.4c-1.3-1.8-1.3-3.6,0-5.4
	v-5.5H1143.8z M1007,277.6C933.4,398.7,853.8,515.4,757,619.5c-8.2,8.8-17,16.9-25.7,25.2c-2,2-3.9,4.8-8.9,3.1
	C769,535.2,834.4,433.7,903,334c19.2-27.9,39.7-54.9,59.8-82.2c3.6-4.8,5.7-5.3,10.2-1.3c9.4,8.4,20.1,15.1,32.1,19.5
	C1010.3,272,1009.2,274,1007,277.6z M767.3,180.5c29,0.6,53.1,25.7,52.6,55.1c-0.4,30.2-25,54.2-55.6,54.2
	c-28.7,0-53.5-25.7-53.1-54.7C711.7,204.3,736.6,180,767.3,180.5z M561.1,242.3c-28.9,0.1-53.8-25-53.8-54
	c0-30.6,24.7-54.9,55.7-54.9c28.5,0.1,52.9,24.6,53.3,53.5C616.7,217.6,592.1,242.2,561.1,242.3z M332.5,511.6
	c0.9-31,25.6-54.5,56.6-54c28.7,0.5,53.1,26.1,52.4,55.4c-0.6,30-26.1,54.4-56.1,53.6C356.2,565.9,331.6,540.4,332.5,511.6z
	 M397.3,362.6c-29,0.1-53.6-24.7-53.6-54c0-30.8,24.5-54.9,55.7-54.7c28.7,0.1,52.9,24.5,53.2,53.5
	C452.8,338.1,428.4,362.5,397.3,362.6z"/>
</svg>
