<?xml version="1.0" encoding="utf-8"?>
<!-- Generator: Adobe Illustrator 25.0.0, SVG Export Plug-In . SVG Version: 6.00 Build 0)  -->
<svg version="1.1" xmlns="http://www.w3.org/2000/svg" xmlns:xlink="http://www.w3.org/1999/xlink" x="0px" y="0px"
	 viewBox="0 0 75 75" style="enable-background:new 0 0 75 75;" xml:space="preserve">
<style type="text/css">
	.st0{display:none;}
	.st1{display:inline;}
	.st2{fill:#FFFFFF;}
</style>
<g id="Calque_1" class="st0">
	<g class="st1">
		<rect x="0.5" y="0.5" width="74" height="74"/>
		<path d="M74,1v73H1V1H74 M75,0H0v75h75V0L75,0z"/>
	</g>
</g>
<g id="Calque_2">
	<g>
		<path class="st2" d="M37.5,2.3L68,19.9v35.2L37.5,72.7L7,55.1V19.9L37.5,2.3 M37.5,0L5,18.7v37.5L37.5,75L70,56.3V18.7L37.5,0
			L37.5,0z"/>
	</g>
</g>
<g id="Calque_3">
	<g>
		<g>
			<path class="st2" d="M31.5,47.8c0-3.1-0.1-6.3,0-9.4c0-0.9-0.3-1.1-1-1c-1,0.1-2.1,0-3.1,0c-0.6,0-0.8-0.1-0.8-0.7
				c0-2.2,0-4.4,0-6.6c0-0.7,0.3-0.8,0.9-0.8c1.1,0,2.2,0,3.3,0c0.6,0,0.8-0.2,0.8-0.8c0-2.3-0.2-4.6,0.1-6.9c0.6-4.6,3-7,7.6-7.6
				c0.3,0,2-0.2,2.5-0.2c0.8,0.2,1.5,0.2,2.3,0c0.1,0,0.1,0,0.2,0c0.7,0.2,1.5,0,2.2,0.1c1.9,0,1.9,0,1.9,1.9c0,0.9-0.1,1.9,0.1,2.8
				c0,0.9,0,1.8,0,2.7c0.1,0.7-0.2,0.9-0.9,0.8c-1.4,0-2.9,0-4.3,0c-1.6,0-2.1,0.4-2.1,2c-0.1,1.5,0,2.9-0.1,4.4
				c0,0.6,0.3,0.7,0.8,0.7c1.9,0,3.9,0,5.8,0c0.5,0,0.8,0,0.7,0.6c-0.2,2.1-0.4,4.2-0.6,6.3c-0.1,0.8-0.3,1-1.1,1
				c-1.5,0-3.1,0-4.6,0c-0.8,0-1.1,0.1-1,1c0,3.6,0,7.2,0,10.7c-0.2,3,0,5.9-0.1,8.9c0,1,0.4,2.2-0.2,2.8c-0.6,0.6-1.8,0.1-2.7,0.2
				c-1.8,0-3.5,0-5.3,0c-1.2,0-1.2,0-1.2-1.2c0-3.6,0-7.2,0-10.7C31.6,48.6,31.7,48.2,31.5,47.8z"/>
		</g>
		<path class="st2" d="M31.5,47.8c0.3,1.5,0.1,3,0.1,4.6c0.1,2.5,0,5,0,7.5c0,0.7,0.2,0.9,0.9,0.9c2.5,0,5,0,7.5,0
			c0.7,0,0.9-0.2,0.9-0.9c0-3.2,0-6.5,0-9.7c0-0.4-0.1-0.8,0.1-1.1c0,4,0,8,0,11.9c-3.2,0-6.4,0-9.6,0
			C31.5,56.6,31.5,52.2,31.5,47.8z"/>
		<path class="st2" d="M48.4,18.8c-0.3-1.1-0.2-2.3-0.1-3.4c0-0.9-0.2-1.4-1.2-1.2c-0.2,0-0.5,0-0.7,0c-0.1,0-0.1-0.1-0.1-0.1
			c0,0,0-0.1,0.1-0.1c0.7,0,1.4,0,2.1,0C48.4,15.6,48.4,17.2,48.4,18.8z"/>
		<path class="st2" d="M44,14c-0.8,0.3-1.5,0.3-2.3,0C42.5,14,43.3,14,44,14z"/>
		<path class="st2" d="M46.3,14c0,0.1,0,0.1,0,0.2c-0.7,0-1.4,0.2-2.1-0.2C44.9,14,45.6,14,46.3,14z"/>
	</g>
</g>
</svg>
