<?xml version="1.0" encoding="utf-8"?>
<!-- Generator: Adobe Illustrator 25.0.0, SVG Export Plug-In . SVG Version: 6.00 Build 0)  -->
<svg version="1.1" xmlns="http://www.w3.org/2000/svg" xmlns:xlink="http://www.w3.org/1999/xlink" x="0px" y="0px"
	 viewBox="0 0 75 75" style="enable-background:new 0 0 75 75;" xml:space="preserve">
<style type="text/css">
	.st0{display:none;}
	.st1{display:inline;}
	.st2{fill:#FFFFFF;}
	.st3{fill:#FEFEFE;}
</style>
<g id="Calque_1" class="st0">
	<g class="st1">
		<rect x="0.5" y="0.5" width="74" height="74"/>
		<path d="M74,1v73H1V1H74 M75,0H0v75h75V0L75,0z"/>
	</g>
</g>
<g id="Calque_2">
	<g>
		<path class="st2" d="M37.5,2.3L68,19.9v35.2L37.5,72.7L7,55.1V19.9L37.5,2.3 M37.5,0L5,18.7v37.5L37.5,75L70,56.3V18.7L37.5,0
			L37.5,0z"/>
	</g>
</g>
<g id="Facebook" class="st0">
	<g class="st1">
		<g>
			<path class="st2" d="M31.5,47.8c0-3.1-0.1-6.3,0-9.4c0-0.9-0.3-1.1-1-1c-1,0.1-2.1,0-3.1,0c-0.6,0-0.8-0.1-0.8-0.7
				c0-2.2,0-4.4,0-6.6c0-0.7,0.3-0.8,0.9-0.8c1.1,0,2.2,0,3.3,0c0.6,0,0.8-0.2,0.8-0.8c0-2.3-0.2-4.6,0.1-6.9c0.6-4.6,3-7,7.6-7.6
				c0.3,0,2-0.2,2.5-0.2c0.8,0.2,1.5,0.2,2.3,0c0.1,0,0.1,0,0.2,0c0.7,0.2,1.5,0,2.2,0.1c1.9,0,1.9,0,1.9,1.9c0,0.9-0.1,1.9,0.1,2.8
				c0,0.9,0,1.8,0,2.7c0.1,0.7-0.2,0.9-0.9,0.8c-1.4,0-2.9,0-4.3,0c-1.6,0-2.1,0.4-2.1,2c-0.1,1.5,0,2.9-0.1,4.4
				c0,0.6,0.3,0.7,0.8,0.7c1.9,0,3.9,0,5.8,0c0.5,0,0.8,0,0.7,0.6c-0.2,2.1-0.4,4.2-0.6,6.3c-0.1,0.8-0.3,1-1.1,1
				c-1.5,0-3.1,0-4.6,0c-0.8,0-1.1,0.1-1,1c0,3.6,0,7.2,0,10.7c-0.2,3,0,5.9-0.1,8.9c0,1,0.4,2.2-0.2,2.8c-0.6,0.6-1.8,0.1-2.7,0.2
				c-1.8,0-3.5,0-5.3,0c-1.2,0-1.2,0-1.2-1.2c0-3.6,0-7.2,0-10.7C31.6,48.6,31.7,48.2,31.5,47.8z"/>
		</g>
		<path class="st2" d="M31.5,47.8c0.3,1.5,0.1,3,0.1,4.6c0.1,2.5,0,5,0,7.5c0,0.7,0.2,0.9,0.9,0.9c2.5,0,5,0,7.5,0
			c0.7,0,0.9-0.2,0.9-0.9c0-3.2,0-6.5,0-9.7c0-0.4-0.1-0.8,0.1-1.1c0,4,0,8,0,11.9c-3.2,0-6.4,0-9.6,0
			C31.5,56.6,31.5,52.2,31.5,47.8z"/>
		<path class="st2" d="M48.4,18.8c-0.3-1.1-0.2-2.3-0.1-3.4c0-0.9-0.2-1.4-1.2-1.2c-0.2,0-0.5,0-0.7,0c-0.1,0-0.1-0.1-0.1-0.1
			c0,0,0-0.1,0.1-0.1c0.7,0,1.4,0,2.1,0C48.4,15.6,48.4,17.2,48.4,18.8z"/>
		<path class="st2" d="M44,14c-0.8,0.3-1.5,0.3-2.3,0C42.5,14,43.3,14,44,14z"/>
		<path class="st2" d="M46.3,14c0,0.1,0,0.1,0,0.2c-0.7,0-1.4,0.2-2.1-0.2C44.9,14,45.6,14,46.3,14z"/>
	</g>
</g>
<g id="Insta" class="st0">
	<g class="st1">
		<path class="st3" d="M60.8,28c0-1.9-0.4-3.8-1.2-5.6c-0.7-1.6-1.8-3-3-4.2c-2.7-2.8-6-4.2-9.9-4.2c-6.3,0-12.7,0-19,0
			c-0.8,0-1.6,0.1-2.4,0.2c-2.6,0.5-4.9,1.6-6.9,3.4c-2.9,2.7-4.3,6.1-4.3,10c0,3.2,0,6.4,0,9.6c0,3.2,0,6.4,0,9.7
			c0,2,0.4,3.9,1.2,5.7c0.7,1.6,1.8,3,3,4.2c2.7,2.8,6,4.2,9.9,4.2c6.3,0,12.6,0,18.8,0c0.4,0,0.9,0,1.3,0c1.9-0.1,3.8-0.6,5.5-1.6
			c4.5-2.6,6.9-6.6,6.9-11.8C60.9,41,60.8,34.5,60.8,28z M57.2,47.4c-0.1,3.8-1.7,6.8-5.1,8.7c-1.4,0.8-2.9,1.2-4.5,1.2
			c-4.6,0-9.2,0-13.8,0c-1.9,0-3.8,0-5.7,0c-2.9,0-5.3-1-7.3-3.1c-1.1-1.1-2-2.3-2.5-3.8c-0.4-1-0.6-2.1-0.6-3.2c0-3.3,0-6.7,0-10h0
			c0-3.2,0-6.4,0-9.7c0-2.9,1-5.3,3.1-7.3c1.5-1.5,3.3-2.3,5.4-2.6c0.5-0.1,0.9-0.1,1.4-0.1c6.4,0,12.7,0,19.1,0
			c2.9,0,5.3,1,7.3,3.1c1.1,1.1,2,2.3,2.5,3.8c0.4,1.1,0.6,2.2,0.6,3.3c0,4.2,0,8.4,0,12.6C57.2,42.7,57.3,45.1,57.2,47.4z
			 M49.7,21.8c-1.7,0-3.2,1.4-3.2,3.2c0,1.7,1.4,3.2,3.2,3.2c1.7,0,3.2-1.4,3.2-3.2C52.9,23.2,51.4,21.8,49.7,21.8z M47.3,30.6
			c-2.2-3.1-5.2-4.9-9-5.2c-2.1-0.2-4.2,0.2-6.1,1.2c-4.4,2.3-6.5,6-6.7,10.8c0,1.1,0.1,2.1,0.4,3.1c1.6,6.3,7.8,10.1,14.1,8.7
			c3.8-0.9,6.6-3.1,8.2-6.7c1-2.1,1.3-4.4,1-6.7C49.1,34,48.4,32.2,47.3,30.6z M40.5,45.4c-4.7,1.9-10.1-1-11.1-6
			c-0.6-2.7-0.1-5.2,1.6-7.3c1.5-1.8,3.4-2.9,5.7-3.1c3.9-0.3,7.4,2,8.6,5.7c0.3,0.9,0.4,1.7,0.4,2.8C45.8,41.1,43.8,44.1,40.5,45.4
			z"/>
		<path d="M49.7,21.8c-1.7,0-3.2,1.4-3.2,3.2c0,1.7,1.4,3.2,3.2,3.2c1.7,0,3.2-1.4,3.2-3.2C52.9,23.2,51.4,21.8,49.7,21.8z
			 M47.3,30.6c-2.2-3.1-5.2-4.9-9-5.2c-2.1-0.2-4.2,0.2-6.1,1.2c-4.4,2.3-6.5,6-6.7,10.8c0,1.1,0.1,2.1,0.4,3.1
			c1.6,6.3,7.8,10.1,14.1,8.7c3.8-0.9,6.6-3.1,8.2-6.7c1-2.1,1.3-4.4,1-6.7C49.1,34,48.4,32.2,47.3,30.6z M40.5,45.4
			c-4.7,1.9-10.1-1-11.1-6c-0.6-2.7-0.1-5.2,1.6-7.3c1.5-1.8,3.4-2.9,5.7-3.1c3.9-0.3,7.4,2,8.6,5.7c0.3,0.9,0.4,1.7,0.4,2.8
			C45.8,41.1,43.8,44.1,40.5,45.4z"/>
		<path class="st3" d="M49.3,35.9c-0.2-1.9-0.9-3.7-2-5.3c-2.2-3.1-5.2-4.9-9-5.2c-2.1-0.2-4.2,0.2-6.1,1.2c-4.4,2.3-6.5,6-6.7,10.8
			c0,1.1,0.1,2.1,0.4,3.1c1.6,6.3,7.8,10.1,14.1,8.7c3.8-0.9,6.6-3.1,8.2-6.7C49.3,40.5,49.6,38.2,49.3,35.9z M40.5,45.4
			c-4.7,1.9-10.1-1-11.1-6c-0.6-2.7-0.1-5.2,1.6-7.3c1.5-1.8,3.4-2.9,5.7-3.1c3.9-0.3,7.4,2,8.6,5.7c0.3,0.9,0.4,1.7,0.4,2.8
			C45.8,41.1,43.8,44.1,40.5,45.4z"/>
		<path class="st3" d="M52.9,24.9c0,1.7-1.4,3.2-3.2,3.2c-1.7,0-3.2-1.4-3.2-3.2c0-1.7,1.4-3.2,3.2-3.2
			C51.4,21.8,52.9,23.2,52.9,24.9z"/>
	</g>
</g>
<g id="Linkdin">
	<g>
		<path class="st2" d="M33.3,54.8c0-3.8,0-7.5,0-11.3c0-4.2,0-8.3,0-12.5c0-0.6,0.1-0.8,0.7-0.7c2,0,3.9,0,5.9,0
			c0.6,0,0.8,0.1,0.8,0.7c0,0.7,0,1.4,0,2.3c0.8-0.8,1.3-1.5,2-2c3.7-2.7,9.2-2.2,12.1,1.1c1,1.2,1.5,2.6,1.9,4.1
			c0.1,0.2,0.3,1.1,0.3,1.3c-0.1,0.1-0.1,0.2-0.1,0.4c0,0.2,0,0.3,0.1,0.5c0,0.3,0,0.7,0,1c-0.2,0.4,0,0.9-0.1,1.3
			c0,4.4,0,8.7,0,13.1c0,0.3,0.1,0.6-0.1,0.9c-0.2,0-0.4,0-0.7,0c-0.3-0.2-0.7,0-1.1-0.1c-0.4,0-0.9,0-1.3,0c-0.5,0-1.1,0-1.6,0
			c-0.9,0-1.8,0-2.7,0c-0.3-0.2-0.2-0.6-0.3-0.9c-0.2-3-0.2-6-0.2-9c0-1.3,0-2.6,0-3.9c0-1-0.2-2-0.8-2.8c-1-1.3-2.4-1.7-3.9-1.4
			c-1.6,0.3-2.6,1.3-3.1,2.8c-0.2,0.6-0.2,1.2-0.2,1.9c0,2,0,3.9,0,5.9c0.1,2.2-0.3,4.4-0.2,6.6c0,0.4,0,0.8-0.6,1
			c-0.1,0-0.2,0-0.3,0c-0.3-0.2-0.7,0-1.1-0.1c-0.4,0-0.9,0-1.3,0c-0.5,0-1,0-1.5,0C35.1,54.9,34.2,55,33.3,54.8z"/>
		<path class="st2" d="M25.2,18.1c6.1,1,4.3,10.2-1.7,8.9C18,25.5,19.2,17,25.2,18.1z"/>
		<path class="st2" d="M20.8,55c0-8,0-16.1,0-24.1c0-0.5,0.2-0.6,0.7-0.6c2.1,0,4.3,0,6.4,0c0.6,0,0.7,0.2,0.7,0.7c0,8,0,16,0,24
			C25.9,55,23.3,55,20.8,55z"/>
		<path class="st2" d="M56.8,55c0-4.7,0-9.4,0-14.2c0-0.1,0.1-0.1,0.1,0c0,4.5,0,9,0,13.5C57,54.6,57.1,54.9,56.8,55z"/>
		<path class="st2" d="M33.3,54.8c0.9,0,1.9,0,2.8,0c0.1,0,0.1,0.1,0,0.1c0,0,0,0-0.1,0c-0.9,0-1.9,0-2.8,0
			C33.3,54.9,33.3,54.9,33.3,54.8z"/>
		<path class="st2" d="M49.4,55c0-0.1,0-0.1,0-0.2c0.9,0,1.9,0,2.8,0c0.1,0,0.1,0.1,0,0.1c0,0,0,0-0.1,0C51.3,55,50.3,55,49.4,55z"
			/>
		<path class="st2" d="M52.2,55c0,0,0-0.1,0-0.1c0.5,0,1.1,0,1.6,0c0.1,0,0.1,0.1,0.1,0.1c0,0,0,0-0.1,0C53.3,55,52.7,55,52.2,55z"
			/>
		<path class="st2" d="M36.1,55c0,0,0-0.1,0-0.1c0.5,0,1,0,1.5,0c0.1,0,0.1,0.1,0.1,0.1c0,0,0,0-0.1,0C37.1,55,36.6,55,36.1,55z"/>
		<path class="st2" d="M37.5,55c0,0,0-0.1,0-0.1c0.4,0,0.9,0,1.3,0c0.1,0,0.1,0.1,0.1,0.1c0,0,0,0-0.1,0C38.4,55,38,55,37.5,55z"/>
		<path class="st2" d="M53.8,55c0,0,0-0.1,0-0.1c0.4,0,0.9,0,1.3,0c0.1,0,0.1,0.1,0.1,0.1c0,0,0,0-0.1,0C54.7,55,54.3,55,53.8,55z"
			/>
		<path class="st2" d="M57,40.8L57,40.8c-0.1,0-0.1,0-0.1,0c0-0.4-0.2-0.8,0.1-1.1C57,40.1,57,40.5,57,40.8z"/>
		<path class="st2" d="M38.9,55c0,0,0-0.1,0-0.1c0.3,0,0.7-0.2,1,0.1C39.5,55,39.2,55,38.9,55z"/>
		<path class="st2" d="M55.2,55c0,0,0-0.1,0-0.1c0.3,0,0.7-0.2,1,0.1C55.8,55,55.5,55,55.2,55z"/>
		<path class="st2" d="M57,38.7c-0.3-0.1-0.1-0.3-0.1-0.5c0-0.1,0.1-0.1,0.1,0C57,38.4,57,38.5,57,38.7z"/>
		<path class="st2" d="M57,38.2L57,38.2c-0.1,0-0.1,0-0.1,0c0-0.1-0.1-0.3,0.1-0.3C57,38,57,38.1,57,38.2z"/>
		<path class="st2" d="M28.3,42.6c0,3.8,0,7.6,0,11.4c0,0.6-0.1,0.8-0.8,0.8c-2,0-3.9,0-5.9,0c-0.6,0-0.8-0.1-0.8-0.8
			c0-7.6,0-15.2,0-22.9c0-0.7,0.2-0.8,0.8-0.8c1.9,0,3.8,0,5.8,0c0.7,0,0.9,0.2,0.9,0.9C28.3,35.1,28.3,38.8,28.3,42.6z"/>
	</g>
</g>
</svg>
