<?xml version="1.0" encoding="utf-8"?>
<!-- Generator: Adobe Illustrator 25.0.0, SVG Export Plug-In . SVG Version: 6.00 Build 0)  -->
<svg version="1.1" xmlns="http://www.w3.org/2000/svg" xmlns:xlink="http://www.w3.org/1999/xlink" x="0px" y="0px"
	 viewBox="0 0 595.3 808.2" style="enable-background:new 0 0 595.3 808.2;" xml:space="preserve">
<style type="text/css">
	.st0{display:none;}
	.st1{display:inline;}
	.st2{fill:#FFFFFF;}
	.st3{display:none;fill:#FFFFFF;}
	.st4{font-family:'Code-Bold';}
	.st5{font-size:379.6537px;}
</style>
<g id="Fond" class="st0">
	<rect x="-616.4" y="-401.4" class="st1" width="2126.3" height="1648.3"/>
</g>
<g id="Calque_1">
	<path class="st2" d="M595.2,298.8c0-25.3-9.2-46.3-27.1-64.1C499,165.8,429.9,96.8,361.1,27.6C342.4,8.8,320.5-0.1,294,0
		C202.2,0.3,110.4,0.1,18.6,0.1C3,0.1,0.1,3,0.1,18.3c0,118.6,0,237.3,0,355.9c0,2.1-0.1,4.2,0.1,6.3c0.7,7.2,5,11.5,11.5,11.6
		c6.5,0.1,11.1-4.1,11.9-11.2c0.3-2.6,0.2-5.3,0.2-7.9c0-113.9,0-227.8-0.1-341.7c0-5.9,1.2-7.8,7.6-7.8
		c88.4,0.2,176.8,0.1,265.2,0.2c3.9,0,7.9,0.1,11.8,0.8c31,5.5,50.1,28.9,50.2,62c0.1,44.2,0,88.4,0,132.6
		c0,14.5,3.2,17.8,17.4,17.8c43.9,0,87.9,0,131.8,0c39.3,0,63.9,24.6,63.9,64c0,158.6,0,317.2,0.2,475.9c0,6.8-1.9,8-8.2,7.9
		c-177-0.2-354.1-0.2-531.1,0.1c-7.6,0-8.7-2.4-8.7-9.1c0.2-113.4,0.1-226.7,0.1-340.1c0-3.4,0.1-6.9-0.5-10.2c-1.1-6-5.3-9-11.2-9
		c-5.9,0-10.1,2.9-11.3,8.9c-0.6,2.8-0.5,5.8-0.5,8.6c0,118.9,0,237.8-0.1,356.7c0,7.2,1.3,13.3,7.2,17.8h580.9
		c4.6-4.1,7.2-8.8,7.2-15.4C595.1,628.2,595.1,463.5,595.2,298.8z M505.9,213.1c-38.9,0.1-77.8-0.1-116.7,0.2
		c-5.8,0-7.4-1.2-7.4-7.2c0.3-38.4,0.1-76.7,0.2-115.1c0-2.3-0.7-4.6,0.9-7.3c43.1,43.1,85.7,85.8,128.5,128.6
		C510.1,214.2,507.8,213.1,505.9,213.1z"/>
	<text transform="matrix(1 0 0 1 231.2764 563.423)" class="st3 st4 st5">1</text>
	<g>
		<path class="st2" d="M275.7,563.4V369.8L240,418.4l-28.9-20.9l71.8-101h30.8v266.9H275.7z"/>
	</g>
</g>
</svg>
