<?xml version="1.0" encoding="utf-8"?>
<!-- Generator: Adobe Illustrator 25.0.0, SVG Export Plug-In . SVG Version: 6.00 Build 0)  -->
<svg version="1.1" xmlns="http://www.w3.org/2000/svg" xmlns:xlink="http://www.w3.org/1999/xlink" x="0px" y="0px"
	 viewBox="0 0 1920 1080" style="enable-background:new 0 0 1920 1080;" xml:space="preserve">
<style type="text/css">
	.st0{fill:#F1F1F1;}
</style>
<g id="Calque_2">
</g>
<g id="Calque_1">
	<g>
		<g>
			<path class="st0" d="M416.7,716.2c0-235.4,0-470.8,0-706.2c3.1-2.8,7-3.2,10.9-3.4c3.9-0.1,7.8-0.1,11.7-0.1
				c346.3,0,692.5,0,1038.8,0c25.3,0,25.3,0,25.3,25c0,223.7,0,447.4,0,671.1c0,16.5-0.3,16.9-17.3,17c-53.4,0.1-106.7,0-160.1,0
				c-3.2,0-6.4-0.2-9.5,0.1c-3.6,0.4-8.8-1.1-9.9,3.8c-1.1,4.9,2.4,8.5,6.6,11c4.7,2.8,10,3.6,15.3,3.6c13.1,0,26,2.1,39.1,2.6
				c19.8,0.9,34.7,12.4,38.8,28.9c1.5,6.1,3.3,13.3-4.8,16.3c-7.6,2.8-13.1-0.6-15.7-8.2c-3.5-10.1-11.4-13.8-21.1-15.1
				c-8.4-1.1-16.9-0.6-25.4-0.6c-9.6,0-19-1.3-28.2-4.1c-14.2-4.4-24.4-12.9-27.5-28c-1.6-7.8-5.9-10.5-13.3-10.3
				c-4.6,0.1-9.2,0-13.8,0c-272.8,0-545.5,0-818.3-0.1C431,719.6,423.3,721.3,416.7,716.2z"/>
			<path class="st0" d="M1229.4,887.3c-180.5,0-359.4,0-538.3,0c-1.3-3.5,1.7-4.5,3.2-6.1c32.2-32.3,64.5-64.4,96.5-96.8
				c4.1-4.2,8.3-5.6,14-5.5c103.2,0.1,206.3,0.1,309.5,0.1c4.6,0,8.7,0.2,12.5,4c33.3,33.6,66.8,67.1,100.2,100.6
				C1227.6,884.2,1228.1,885.2,1229.4,887.3z"/>
			<path class="st0" d="M1366.6,785.7c0,29.4-0.2,58.3,0.1,87.2c0.1,6.7,2.8,13.1,6.5,18.8c12.5,19.5,36,19.5,48.6,0
				c3.9-6,6.5-12.6,6.5-19.8c0.1-25.4,0.1-50.9,0.1-76.3c0-2.7,0.2-5.6-2.2-8.2c5.3-3,9.9,0.2,13.9,2c37,17.1,59.3,45.8,61.3,86.8
				c1.8,37.3,2.7,74.9-1.1,112.2c-4.3,41.7-45.2,80.5-86.8,84.4c-30.8,2.9-58.8-2.3-83.3-22.3c-24.5-20-36.7-46.4-37.2-77.4
				c-0.6-34.2-2-68.5,1.1-102.7C1297.7,830.7,1327.7,795.9,1366.6,785.7z"/>
			<path class="st0" d="M1413.2,833.2c-0.4,9.4-1.6,18.5-7.5,26.1c-5.5,7-10.6,7-16.3,0c-9.9-12-9.7-41,0.2-52.8
				c5.3-6.3,10.5-6.4,15.7,0C1411.7,814.4,1412.8,823.8,1413.2,833.2z"/>
		</g>
	</g>
</g>
</svg>
