<?xml version="1.0" encoding="utf-8"?>
<!-- Generator: Adobe Illustrator 25.0.0, SVG Export Plug-In . SVG Version: 6.00 Build 0)  -->
<svg version="1.1" xmlns="http://www.w3.org/2000/svg" xmlns:xlink="http://www.w3.org/1999/xlink" x="0px" y="0px"
	 viewBox="0 0 75 75" style="enable-background:new 0 0 75 75;" xml:space="preserve">
<style type="text/css">
	.st0{display:none;}
	.st1{display:inline;}
	.st2{fill:#FFFFFF;}
	.st3{fill:#FEFEFE;}
	.st4{display:inline;fill:#FEFEFE;}
</style>
<g id="Calque_1" class="st0">
	<g class="st1">
		<rect x="0.5" y="0.5" width="74" height="74"/>
		<path d="M74,1v73H1V1H74 M75,0H0v75h75V0L75,0z"/>
	</g>
</g>
<g id="Calque_2">
	<g>
		<path class="st2" d="M37.5,2.3L68,19.9v35.2L37.5,72.7L7,55.1V19.9L37.5,2.3 M37.5,0L5,18.7v37.5L37.5,75L70,56.3V18.7L37.5,0
			L37.5,0z"/>
	</g>
</g>
<g id="Facebook" class="st0">
	<g class="st1">
		<g>
			<path class="st2" d="M31.5,47.8c0-3.1-0.1-6.3,0-9.4c0-0.9-0.3-1.1-1-1c-1,0.1-2.1,0-3.1,0c-0.6,0-0.8-0.1-0.8-0.7
				c0-2.2,0-4.4,0-6.6c0-0.7,0.3-0.8,0.9-0.8c1.1,0,2.2,0,3.3,0c0.6,0,0.8-0.2,0.8-0.8c0-2.3-0.2-4.6,0.1-6.9c0.6-4.6,3-7,7.6-7.6
				c0.3,0,2-0.2,2.5-0.2c0.8,0.2,1.5,0.2,2.3,0c0.1,0,0.1,0,0.2,0c0.7,0.2,1.5,0,2.2,0.1c1.9,0,1.9,0,1.9,1.9c0,0.9-0.1,1.9,0.1,2.8
				c0,0.9,0,1.8,0,2.7c0.1,0.7-0.2,0.9-0.9,0.8c-1.4,0-2.9,0-4.3,0c-1.6,0-2.1,0.4-2.1,2c-0.1,1.5,0,2.9-0.1,4.4
				c0,0.6,0.3,0.7,0.8,0.7c1.9,0,3.9,0,5.8,0c0.5,0,0.8,0,0.7,0.6c-0.2,2.1-0.4,4.2-0.6,6.3c-0.1,0.8-0.3,1-1.1,1
				c-1.5,0-3.1,0-4.6,0c-0.8,0-1.1,0.1-1,1c0,3.6,0,7.2,0,10.7c-0.2,3,0,5.9-0.1,8.9c0,1,0.4,2.2-0.2,2.8c-0.6,0.6-1.8,0.1-2.7,0.2
				c-1.8,0-3.5,0-5.3,0c-1.2,0-1.2,0-1.2-1.2c0-3.6,0-7.2,0-10.7C31.6,48.6,31.7,48.2,31.5,47.8z"/>
		</g>
		<path class="st2" d="M31.5,47.8c0.3,1.5,0.1,3,0.1,4.6c0.1,2.5,0,5,0,7.5c0,0.7,0.2,0.9,0.9,0.9c2.5,0,5,0,7.5,0
			c0.7,0,0.9-0.2,0.9-0.9c0-3.2,0-6.5,0-9.7c0-0.4-0.1-0.8,0.1-1.1c0,4,0,8,0,11.9c-3.2,0-6.4,0-9.6,0
			C31.5,56.6,31.5,52.2,31.5,47.8z"/>
		<path class="st2" d="M48.4,18.8c-0.3-1.1-0.2-2.3-0.1-3.4c0-0.9-0.2-1.4-1.2-1.2c-0.2,0-0.5,0-0.7,0c-0.1,0-0.1-0.1-0.1-0.1
			c0,0,0-0.1,0.1-0.1c0.7,0,1.4,0,2.1,0C48.4,15.6,48.4,17.2,48.4,18.8z"/>
		<path class="st2" d="M44,14c-0.8,0.3-1.5,0.3-2.3,0C42.5,14,43.3,14,44,14z"/>
		<path class="st2" d="M46.3,14c0,0.1,0,0.1,0,0.2c-0.7,0-1.4,0.2-2.1-0.2C44.9,14,45.6,14,46.3,14z"/>
	</g>
</g>
<g id="Insta" class="st0">
	<g class="st1">
		<path class="st3" d="M59,28.7c0-1.8-0.4-3.5-1.1-5.1c-0.7-1.5-1.6-2.7-2.8-3.9c-2.5-2.5-5.5-3.8-9.1-3.8c-5.8,0-11.7,0-17.5,0
			c-0.7,0-1.5,0.1-2.2,0.2c-2.4,0.4-4.6,1.5-6.3,3.1c-2.6,2.5-3.9,5.6-4,9.2c0,3,0,5.9,0,8.9c0,3,0,5.9,0,8.9c0,1.8,0.4,3.6,1.1,5.2
			c0.7,1.5,1.6,2.7,2.7,3.9c2.5,2.5,5.5,3.8,9.1,3.8c5.8,0,11.6,0,17.4,0c0.4,0,0.8,0,1.2,0c1.8-0.1,3.5-0.6,5-1.5
			c4.2-2.4,6.3-6.1,6.4-10.9C59,40.7,59,34.7,59,28.7z M55.7,46.6c-0.1,3.5-1.6,6.2-4.7,8c-1.3,0.8-2.7,1.1-4.1,1.1
			c-4.2,0-8.5,0-12.7,0c-1.7,0-3.5,0-5.2,0c-2.6,0-4.8-1-6.7-2.8c-1-1-1.8-2.1-2.3-3.5c-0.4-1-0.6-2-0.6-3c0-3.1,0-6.2,0-9.3h0
			c0-3,0-5.9,0-8.9c0-2.7,1-4.9,2.9-6.8c1.4-1.3,3.1-2.1,5-2.4c0.4-0.1,0.9-0.1,1.3-0.1c5.9,0,11.7,0,17.6,0c2.6,0,4.8,1,6.7,2.8
			c1,1,1.8,2.1,2.3,3.5c0.4,1,0.6,2,0.6,3c0,3.9,0,7.7,0,11.6C55.7,42.3,55.7,44.5,55.7,46.6z M48.7,23c-1.6,0-2.9,1.3-2.9,2.9
			c0,1.6,1.3,2.9,2.9,2.9c1.6,0,2.9-1.3,2.9-2.9C51.7,24.3,50.3,23,48.7,23z M46.6,31.2c-2-2.9-4.8-4.5-8.3-4.8
			c-2-0.2-3.9,0.2-5.6,1.1c-4,2.1-6,5.5-6.2,10c0,1,0.1,1.9,0.4,2.9c1.5,5.8,7.2,9.3,13,8c3.5-0.8,6.1-2.9,7.6-6.2
			c0.9-2,1.2-4,0.9-6.2C48.2,34.3,47.6,32.6,46.6,31.2z M40.2,44.8c-4.3,1.7-9.3-0.9-10.2-5.5c-0.5-2.5-0.1-4.8,1.5-6.8
			c1.4-1.7,3.1-2.6,5.3-2.8c3.6-0.3,6.8,1.8,7.9,5.2c0.3,0.8,0.4,1.6,0.4,2.6C45.2,40.8,43.3,43.6,40.2,44.8z"/>
		<path d="M48.7,23c-1.6,0-2.9,1.3-2.9,2.9c0,1.6,1.3,2.9,2.9,2.9c1.6,0,2.9-1.3,2.9-2.9C51.7,24.3,50.3,23,48.7,23z M46.6,31.2
			c-2-2.9-4.8-4.5-8.3-4.8c-2-0.2-3.9,0.2-5.6,1.1c-4,2.1-6,5.5-6.2,10c0,1,0.1,1.9,0.4,2.9c1.5,5.8,7.2,9.3,13,8
			c3.5-0.8,6.1-2.9,7.6-6.2c0.9-2,1.2-4,0.9-6.2C48.2,34.3,47.6,32.6,46.6,31.2z M40.2,44.8c-4.3,1.7-9.3-0.9-10.2-5.5
			c-0.5-2.5-0.1-4.8,1.5-6.8c1.4-1.7,3.1-2.6,5.3-2.8c3.6-0.3,6.8,1.8,7.9,5.2c0.3,0.8,0.4,1.6,0.4,2.6
			C45.2,40.8,43.3,43.6,40.2,44.8z"/>
		<path class="st3" d="M48.4,36c-0.2-1.8-0.8-3.4-1.8-4.9c-2-2.9-4.8-4.5-8.3-4.8c-2-0.2-3.9,0.2-5.6,1.1c-4,2.1-6,5.5-6.2,10
			c0,1,0.1,1.9,0.4,2.9c1.5,5.8,7.2,9.3,13,8c3.5-0.8,6.1-2.9,7.6-6.2C48.4,40.3,48.6,38.2,48.4,36z M40.2,44.8
			c-4.3,1.7-9.3-0.9-10.2-5.5c-0.5-2.5-0.1-4.8,1.5-6.8c1.4-1.7,3.1-2.6,5.3-2.8c3.6-0.3,6.8,1.8,7.9,5.2c0.3,0.8,0.4,1.6,0.4,2.6
			C45.2,40.8,43.3,43.6,40.2,44.8z"/>
		<path class="st3" d="M51.6,25.9c0,1.6-1.3,2.9-2.9,2.9c-1.6,0-2.9-1.3-2.9-2.9c0-1.6,1.3-2.9,2.9-2.9C50.3,23,51.7,24.3,51.6,25.9
			z"/>
	</g>
</g>
<g id="Linkdin" class="st0">
	<g class="st1">
		<path class="st2" d="M33.3,54.8c0-3.8,0-7.5,0-11.3c0-4.2,0-8.3,0-12.5c0-0.6,0.1-0.8,0.7-0.7c2,0,3.9,0,5.9,0
			c0.6,0,0.8,0.1,0.8,0.7c0,0.7,0,1.4,0,2.3c0.8-0.8,1.3-1.5,2-2c3.7-2.7,9.2-2.2,12.1,1.1c1,1.2,1.5,2.6,1.9,4.1
			c0.1,0.2,0.3,1.1,0.3,1.3c-0.1,0.1-0.1,0.2-0.1,0.4c0,0.2,0,0.3,0.1,0.5c0,0.3,0,0.7,0,1c-0.2,0.4,0,0.9-0.1,1.3
			c0,4.4,0,8.7,0,13.1c0,0.3,0.1,0.6-0.1,0.9c-0.2,0-0.4,0-0.7,0c-0.3-0.2-0.7,0-1.1-0.1c-0.4,0-0.9,0-1.3,0c-0.5,0-1.1,0-1.6,0
			c-0.9,0-1.8,0-2.7,0c-0.3-0.2-0.2-0.6-0.3-0.9c-0.2-3-0.2-6-0.2-9c0-1.3,0-2.6,0-3.9c0-1-0.2-2-0.8-2.8c-1-1.3-2.4-1.7-3.9-1.4
			c-1.6,0.3-2.6,1.3-3.1,2.8c-0.2,0.6-0.2,1.2-0.2,1.9c0,2,0,3.9,0,5.9c0.1,2.2-0.3,4.4-0.2,6.6c0,0.4,0,0.8-0.6,1
			c-0.1,0-0.2,0-0.3,0c-0.3-0.2-0.7,0-1.1-0.1c-0.4,0-0.9,0-1.3,0c-0.5,0-1,0-1.5,0C35.1,54.9,34.2,55,33.3,54.8z"/>
		<path class="st2" d="M25.2,18.1c6.1,1,4.3,10.2-1.7,8.9C18,25.5,19.2,17,25.2,18.1z"/>
		<path class="st2" d="M20.8,55c0-8,0-16.1,0-24.1c0-0.5,0.2-0.6,0.7-0.6c2.1,0,4.3,0,6.4,0c0.6,0,0.7,0.2,0.7,0.7c0,8,0,16,0,24
			C25.9,55,23.3,55,20.8,55z"/>
		<path class="st2" d="M56.8,55c0-4.7,0-9.4,0-14.2c0-0.1,0.1-0.1,0.1,0c0,4.5,0,9,0,13.5C57,54.6,57.1,54.9,56.8,55z"/>
		<path class="st2" d="M33.3,54.8c0.9,0,1.9,0,2.8,0c0.1,0,0.1,0.1,0,0.1c0,0,0,0-0.1,0c-0.9,0-1.9,0-2.8,0
			C33.3,54.9,33.3,54.9,33.3,54.8z"/>
		<path class="st2" d="M49.4,55c0-0.1,0-0.1,0-0.2c0.9,0,1.9,0,2.8,0c0.1,0,0.1,0.1,0,0.1c0,0,0,0-0.1,0C51.3,55,50.3,55,49.4,55z"
			/>
		<path class="st2" d="M52.2,55c0,0,0-0.1,0-0.1c0.5,0,1.1,0,1.6,0c0.1,0,0.1,0.1,0.1,0.1c0,0,0,0-0.1,0C53.3,55,52.7,55,52.2,55z"
			/>
		<path class="st2" d="M36.1,55c0,0,0-0.1,0-0.1c0.5,0,1,0,1.5,0c0.1,0,0.1,0.1,0.1,0.1c0,0,0,0-0.1,0C37.1,55,36.6,55,36.1,55z"/>
		<path class="st2" d="M37.5,55c0,0,0-0.1,0-0.1c0.4,0,0.9,0,1.3,0c0.1,0,0.1,0.1,0.1,0.1c0,0,0,0-0.1,0C38.4,55,38,55,37.5,55z"/>
		<path class="st2" d="M53.8,55c0,0,0-0.1,0-0.1c0.4,0,0.9,0,1.3,0c0.1,0,0.1,0.1,0.1,0.1c0,0,0,0-0.1,0C54.7,55,54.3,55,53.8,55z"
			/>
		<path class="st2" d="M57,40.8L57,40.8c-0.1,0-0.1,0-0.1,0c0-0.4-0.2-0.8,0.1-1.1C57,40.1,57,40.5,57,40.8z"/>
		<path class="st2" d="M38.9,55c0,0,0-0.1,0-0.1c0.3,0,0.7-0.2,1,0.1C39.5,55,39.2,55,38.9,55z"/>
		<path class="st2" d="M55.2,55c0,0,0-0.1,0-0.1c0.3,0,0.7-0.2,1,0.1C55.8,55,55.5,55,55.2,55z"/>
		<path class="st2" d="M57,38.7c-0.3-0.1-0.1-0.3-0.1-0.5c0-0.1,0.1-0.1,0.1,0C57,38.4,57,38.5,57,38.7z"/>
		<path class="st2" d="M57,38.2L57,38.2c-0.1,0-0.1,0-0.1,0c0-0.1-0.1-0.3,0.1-0.3C57,38,57,38.1,57,38.2z"/>
		<path class="st2" d="M28.3,42.6c0,3.8,0,7.6,0,11.4c0,0.6-0.1,0.8-0.8,0.8c-2,0-3.9,0-5.9,0c-0.6,0-0.8-0.1-0.8-0.8
			c0-7.6,0-15.2,0-22.9c0-0.7,0.2-0.8,0.8-0.8c1.9,0,3.8,0,5.8,0c0.7,0,0.9,0.2,0.9,0.9C28.3,35.1,28.3,38.8,28.3,42.6z"/>
	</g>
</g>
<g id="Twitter" class="st0">
	<path class="st4" d="M60,23.8c-1,1.5-2.2,2.7-3.6,3.8c-0.5,0.4-0.7,0.8-0.7,1.4c-0.1,6.6-2.1,12.6-6.4,17.7
		c-4.3,5.1-9.7,8.2-16.4,9c-6,0.7-11.7-0.1-16.9-3.1c-0.4-0.2-0.7-0.5-1.1-0.7c2.9,0,5.8-0.1,8.6-1.2c1.7-0.7,3.2-1.5,4.8-2.6
		c-0.8-0.2-1.4-0.3-2-0.4c-2.9-0.8-5-2.6-6.2-5.3c-0.3-0.6-0.3-0.8,0.5-0.8c1,0.1,2,0.1,3.2-0.2c-2.2-0.6-3.9-1.7-5.2-3.3
		c-1.3-1.7-2.1-3.6-2-5.9c1.3,0.4,2.4,1,3.9,1c-4-3.5-4.8-7.6-2.7-12.4c1.2,1.1,2.3,2.2,3.4,3.2c4.3,3.9,9.5,5.9,15.2,6.5
		c0.7,0.1,0.7-0.2,0.6-0.7c-0.4-5.2,2.2-9.2,7-10.4c2.9-0.8,5.7-0.3,8,1.7c0.9,0.7,1.6,0.9,2.7,0.5c1.4-0.5,2.8-1.1,4.3-1.8
		c-0.7,2.1-2,3.6-3.7,4.9c0.8,0,1.3-0.1,1.9-0.3c0.6-0.1,1.2-0.4,1.7-0.5C59.3,23.8,59.7,23.5,60,23.8z"/>
</g>
<g id="TikTok">
	<g>
		<path class="st2" d="M39.3,15c0.7,0,1.4,0,2,0c0.8,0.2,1.7,0,2.5,0.1c0.4,0,0.8,0.1,1.2-0.1c0.1,0,0.2,0,0.4,0
			c0.4,0.2,0.5,0.5,0.6,1c1,5,4.5,8.5,9.6,9.4c0.4,0.1,0.8,0.2,1.1,0.6c0,0.4,0,0.7,0,1.1c-0.2,0.5,0,0.9-0.1,1.4
			c0.1,1.1-0.1,2.3,0.1,3.4c0,0.4,0,0.9,0,1.3c-0.5,0.6-1.2,0.5-1.9,0.4C50.8,33,49.1,32.2,46,29c-0.1,0.4-0.1,0.7-0.1,1
			c0,5.3,0,10.6,0,15.8c0,3.6-1,7-3.5,9.7c-2.3,2.6-5.1,4.4-8.7,4.5c-0.3,0-3.2,0-3.6,0c-2.6,0.1-4.9-1.1-6.8-2.7
			c-1.9-1.5-3.4-3.4-4.4-5.8c-0.4-1-0.6-2.1-0.6-3.2c0-0.4,0-3.6,0-4c0-2.9,1.3-5.2,3.1-7.2c2.6-2.9,5.9-4.4,9.7-4.8
			c1.4-0.1,1.8,0.2,1.8,1.6c0,1.5,0,3,0,4.5c0,1-0.2,1.2-1.2,1.2c-2.9,0.1-5.2,1.7-6.1,4.2c-1,2.8-0.3,5.6,1.9,7.5
			c2.2,1.8,4.7,2.2,7.3,1c2.6-1.2,4-3.3,4.1-6.2c0.1-2.3,0-4.6,0-7c0-7.6,0-15.2,0-22.8C38.9,16,38.7,15.4,39.3,15z"/>
		<path class="st2" d="M56.8,31.9c-0.4-1.2-0.1-2.3-0.2-3.5c0.1-0.1,0.1-0.1,0.2,0C56.8,29.5,56.8,30.7,56.8,31.9z"/>
		<path class="st2" d="M44,15.2c-0.9-0.1-1.7,0.2-2.6-0.2c0.9,0,1.7,0,2.6,0C44,15,44,15.1,44,15.2C44,15.2,44,15.2,44,15.2z"/>
		<path class="st2" d="M56.8,28.4c-0.1,0-0.1,0-0.2,0c0.1-0.4-0.2-0.9,0.2-1.3C56.8,27.5,56.8,27.9,56.8,28.4z"/>
		<path class="st2" d="M44,15.2c0-0.1,0-0.1,0-0.2c0.4,0,0.7,0,1.1,0C44.7,15.3,44.3,15.1,44,15.2z"/>
	</g>
</g>
</svg>
