<?xml version="1.0" encoding="utf-8"?>
<!-- Generator: Adobe Illustrator 25.0.0, SVG Export Plug-In . SVG Version: 6.00 Build 0)  -->
<svg version="1.1" id="logo-studio" xmlns="http://www.w3.org/2000/svg" xmlns:xlink="http://www.w3.org/1999/xlink" x="0px"
	 y="0px" viewBox="0 0 234.7 352" style="enable-background:new 0 0 234.7 352;" xml:space="preserve">
<style type="text/css">
	.st0{fill:#CCBE9F;}
</style>
<path class="st0" d="M203.2,318.8V75.6c0-7.4-3.8-14.4-10.1-18.4l-65.3-41.8c-7-4.5-16.1-4.5-23.1,0.1L41.2,57.2
	c-6.1,4-9.8,10.8-9.8,18.1v264.5h7.8V79.5c-0.1-11.4,0.2-11.9,9.8-18.1l55.9-36.5c11.4-7.6,11.4-7.6,23-0.1l57.4,36.6
	c9.6,6.4,9.9,6.5,10.1,18.4V323c0,8.8,0.3,8.6-9.8,8.6L82.5,332V142.2l32-19.4v156.4c0,0.9,0.3,1.8,0.8,2.5l3.1,4.3l3-4.3l0,0
	c0.6-0.8,0.9-1.7,0.9-2.6V123.1l29.7,19v162.4l7.8,7V137.8l-10.1-6.5V89.7l-31.3-24l-32,24l0.1,40.9l-11.8,7.2V340h119.6
	C204.7,340,203.2,334.5,203.2,318.8z M144,127.7l-21.7-13.9V76.2L144,92.4V127.7z M92.1,92.4l22.3-16.2v37.5l-22.2,13.5L92.1,92.4z"
	/>
</svg>
